<?xml version="1.0" encoding="utf-8"?>
<!-- Generator: Adobe Illustrator 16.0.0, SVG Export Plug-In . SVG Version: 6.00 Build 0)  -->
<!DOCTYPE svg PUBLIC "-//W3C//DTD SVG 1.1//EN" "http://www.w3.org/Graphics/SVG/1.1/DTD/svg11.dtd">
<svg version="1.1" id="Capa_1" xmlns="http://www.w3.org/2000/svg" xmlns:xlink="http://www.w3.org/1999/xlink" x="0px" y="0px"
	 width="259.8px" height="39.3px" viewBox="0 0 259.8 39.3" enable-background="new 0 0 259.8 39.3" xml:space="preserve">
<g>
	<g>
		<g>
			<path fill="#95C11F" stroke="#95C11F" stroke-miterlimit="10" d="M49.9,25.7c-4.3,0-6.9-2.6-6.9-8.1c0-5.5,2.6-8.1,6.9-8.1
				c3.8,0,6.5,2.2,6.5,6.5v9.6c0,4.5-2.9,6.4-6.7,6.4c-2.6,0-4.5-0.9-5.5-2.2c-0.1-0.1-0.1-0.2-0.1-0.3c0-0.2,0.2-0.4,0.4-0.4
				c0.1,0,0.3,0.1,0.4,0.2c0.9,1,2.3,1.9,4.8,1.9c3.4,0,5.6-1.7,5.6-5.5v-3.1C55.4,22.5,54,25.7,49.9,25.7z M55.4,16
				c0-3.9-2.3-5.6-5.5-5.6c-3.8,0-5.8,2.2-5.8,7.2c0,5,2,7.2,5.8,7.2c4.2,0,5.5-3.9,5.5-3.9V16z"/>
		</g>
		<g>
			<path fill="#95C11F" stroke="#95C11F" stroke-miterlimit="10" d="M61.3,10.2v3.3c0.7-2.3,2.6-4,5.7-4c0.2,0,0.4,0.2,0.4,0.4
				c0,0.2-0.2,0.4-0.4,0.4c-3.9,0-5.7,3-5.7,6.7V25c0,0.3-0.2,0.5-0.5,0.5c-0.3,0-0.5-0.2-0.5-0.5V10.2c0-0.3,0.2-0.5,0.5-0.5
				C61.1,9.7,61.3,9.9,61.3,10.2z"/>
		</g>
		<g>
			<path fill="#95C11F" stroke="#95C11F" stroke-miterlimit="10" d="M75.7,9.5c5.6,0,6.3,4.2,6.3,6.4c0,0.4,0,0.8-0.1,1.2
				c-0.1,0.4-0.3,0.5-0.7,0.5H69.9c0,4.8,2.2,7.1,6.2,7.1c2.5,0,3.8-0.9,4.7-1.7C80.9,23,81,23,81.1,23c0.2,0,0.4,0.2,0.4,0.4
				c0,0.2-0.1,0.3-0.2,0.4c-0.5,0.5-2.2,1.8-5.2,1.8c-4.5,0-7.2-2.4-7.2-8.1C68.9,12.4,71.4,9.5,75.7,9.5z M75.7,10.4
				c-3.8,0-5.7,2.5-5.8,6.5H81c0,0,0-0.7,0-0.9C81.1,13.2,80,10.4,75.7,10.4z"/>
		</g>
		<g>
			<path fill="#95C11F" stroke="#95C11F" stroke-miterlimit="10" d="M91.4,9.5c5.6,0,6.3,4.2,6.3,6.4c0,0.4,0,0.8-0.1,1.2
				c-0.1,0.4-0.3,0.5-0.7,0.5H85.6c0,4.8,2.3,7.1,6.2,7.1c2.5,0,3.8-0.9,4.7-1.7c0.1-0.1,0.2-0.1,0.3-0.1c0.2,0,0.4,0.2,0.4,0.4
				c0,0.2-0.1,0.3-0.2,0.4c-0.5,0.5-2.2,1.8-5.2,1.8c-4.5,0-7.2-2.4-7.2-8.1C84.5,12.4,87.1,9.5,91.4,9.5z M91.4,10.4
				c-3.8,0-5.7,2.5-5.8,6.5h11.1c0,0,0-0.7,0-0.9C96.7,13.2,95.7,10.4,91.4,10.4z"/>
		</g>
		<g>
			<path fill="#95C11F" stroke="#95C11F" stroke-miterlimit="10" d="M101.2,25V10.2c0-0.3,0.2-0.5,0.5-0.5s0.5,0.2,0.5,0.5v2.5
				c0.5-1.3,2.1-3.2,5.3-3.2c4.8,0,6,2.9,6,5.9V25c0,0.3-0.2,0.5-0.5,0.5c-0.3,0-0.5-0.2-0.5-0.5v-9.5c0-2.7-0.9-5.1-5-5.1
				c-3.7,0-5.2,2.8-5.2,5.4V25c0,0.3-0.2,0.5-0.5,0.5S101.2,25.3,101.2,25z"/>
		</g>
		<g>
			<path fill="#706F6F" stroke="#706F6E" stroke-miterlimit="10" d="M123.7,9.5c3.3,0,4.6,1.8,5,2.2c0.1,0.1,0.1,0.2,0.1,0.3
				c0,0.2-0.2,0.4-0.4,0.4c-0.2,0-0.3-0.1-0.4-0.2c-0.6-0.7-1.6-1.9-4.3-1.9c-3.8,0-5.8,2.2-5.8,7.2c0,5,2,7.2,5.8,7.2
				c2.3,0,3.6-1,4.5-1.6c0.1-0.1,0.2-0.1,0.3-0.1c0.2,0,0.4,0.2,0.4,0.4c0,0.1,0,0.2-0.2,0.4c-0.7,0.5-2.3,1.8-5,1.8
				c-4.3,0-6.9-2.6-6.9-8.1C116.8,12.1,119.4,9.5,123.7,9.5z"/>
		</g>
		<g>
			<path fill="#706F6F" stroke="#706F6E" stroke-miterlimit="10" d="M133.3,10.2v9.5c0,2.8,0.9,5.1,5.1,5.1c4.3,0,5.1-2.4,5.1-5.1
				v-9.5c0-0.3,0.2-0.5,0.5-0.5c0.3,0,0.5,0.2,0.5,0.5v9.5c0,3.1-1.1,6-6.1,6s-6.1-2.9-6.1-6v-9.5c0-0.3,0.2-0.5,0.5-0.5
				S133.3,9.9,133.3,10.2z"/>
		</g>
		<g>
			<path fill="#706F6F" stroke="#706F6E" stroke-miterlimit="10" d="M149.3,13.3c0,4.5,9.6,2.9,9.6,8.2c0,2.9-2.4,4.2-5.5,4.2
				c-2.8,0-4.9-1.2-5.7-2.3c-0.1-0.1-0.1-0.2-0.1-0.3c0-0.3,0.2-0.4,0.4-0.4c0.1,0,0.2,0,0.3,0.1c1.1,1.3,2.6,2.1,5.1,2.1
				c2.5,0,4.5-0.9,4.5-3.3c0-4.3-9.6-2.9-9.6-8.2c0-2.6,2.2-3.8,4.9-3.8c2.3,0,3.9,0.8,5,2c0.1,0.1,0.1,0.2,0.1,0.3
				c0,0.2-0.2,0.4-0.4,0.4c-0.1,0-0.2,0-0.3-0.1c-1.2-1.2-2.5-1.8-4.4-1.8C151.2,10.4,149.3,11.1,149.3,13.3z"/>
		</g>
		<g>
			<path fill="#706F6F" stroke="#706F6E" stroke-miterlimit="10" d="M163.2,5.9c0-0.3,0.2-0.5,0.5-0.5c0.3,0,0.5,0.2,0.5,0.5V10h3
				c0.2,0,0.4,0.2,0.4,0.4c0,0.2-0.2,0.4-0.4,0.4h-3v10.7c0,2,1.1,3.1,2.8,3.1c0.2,0,0.4,0.2,0.4,0.4c0,0.2-0.2,0.4-0.4,0.4
				c-2.5,0-3.8-1.7-3.8-4V10.9h-2.1c-0.2,0-0.4-0.2-0.4-0.4c0-0.2,0.2-0.4,0.4-0.4h2.1V5.9z"/>
		</g>
		<g>
			<path fill="#706F6F" stroke="#706F6E" stroke-miterlimit="10" d="M184,17.6c0,5.5-2.6,8.1-6.9,8.1s-6.9-2.6-6.9-8.1
				c0-5.5,2.6-8.1,6.9-8.1S184,12.1,184,17.6z M182.9,17.6c0-4.9-2-7.2-5.8-7.2s-5.8,2.3-5.8,7.2c0,5,2,7.2,5.8,7.2
				S182.9,22.6,182.9,17.6z"/>
		</g>
		<g>
			<path fill="#706F6F" stroke="#706F6E" stroke-miterlimit="10" d="M210.5,15.5V25c0,0.3-0.2,0.5-0.5,0.5c-0.3,0-0.5-0.2-0.5-0.5
				v-9.5c0-2.7-1.1-5.1-5-5.1c-3.5,0-4.9,2.4-4.9,5.1V25c0,0.3-0.2,0.5-0.5,0.5c-0.3,0-0.5-0.2-0.5-0.5v-9.5c0-2.7-0.9-5.1-4.9-5.1
				c-3.5,0-5,3-5,5.8V25c0,0.3-0.2,0.5-0.5,0.5c-0.3,0-0.5-0.2-0.5-0.5V10.2c0-0.3,0.2-0.5,0.5-0.5c0.3,0,0.5,0.2,0.5,0.5v2.6
				c0.5-1.5,2-3.3,5.1-3.3c3.2,0,4.8,1.3,5.4,3.1c0.5-1.4,2.1-3.1,5.3-3.1C209.3,9.5,210.5,12.4,210.5,15.5z"/>
		</g>
		<g>
			<path fill="#706F6F" stroke="#706F6E" stroke-miterlimit="10" d="M220.7,9.5c5.6,0,6.3,4.2,6.3,6.4c0,0.4,0,0.8-0.1,1.2
				c-0.1,0.4-0.3,0.5-0.7,0.5h-11.3c0,4.8,2.2,7.1,6.2,7.1c2.5,0,3.8-0.9,4.7-1.7c0.1-0.1,0.2-0.1,0.3-0.1c0.2,0,0.4,0.2,0.4,0.4
				c0,0.2-0.1,0.3-0.2,0.4c-0.5,0.5-2.2,1.8-5.2,1.8c-4.5,0-7.2-2.4-7.2-8.1C213.8,12.4,216.4,9.5,220.7,9.5z M220.7,10.4
				c-3.8,0-5.7,2.5-5.8,6.5H226c0,0,0-0.7,0-0.9C226,13.2,225,10.4,220.7,10.4z"/>
		</g>
		<g>
			<path fill="#706F6F" stroke="#706F6E" stroke-miterlimit="10" d="M231.5,10.2v3.3c0.7-2.3,2.6-4,5.7-4c0.2,0,0.4,0.2,0.4,0.4
				c0,0.2-0.2,0.4-0.4,0.4c-3.9,0-5.7,3-5.7,6.7V25c0,0.3-0.2,0.5-0.5,0.5s-0.5-0.2-0.5-0.5V10.2c0-0.3,0.2-0.5,0.5-0.5
				S231.5,9.9,231.5,10.2z"/>
		</g>
		<g>
			<path fill="#706F6F" stroke="#706F6E" stroke-miterlimit="10" d="M240.5,13.3c0,4.5,9.6,2.9,9.6,8.2c0,2.9-2.4,4.2-5.5,4.2
				c-2.8,0-4.9-1.2-5.7-2.3c-0.1-0.1-0.1-0.2-0.1-0.3c0-0.3,0.2-0.4,0.4-0.4c0.1,0,0.2,0,0.3,0.1c1.1,1.3,2.6,2.1,5.1,2.1
				c2.5,0,4.5-0.9,4.5-3.3c0-4.3-9.6-2.9-9.6-8.2c0-2.6,2.2-3.8,4.9-3.8c2.3,0,3.9,0.8,5,2c0.1,0.1,0.1,0.2,0.1,0.3
				c0,0.2-0.2,0.4-0.4,0.4c-0.1,0-0.2,0-0.3-0.1c-1.2-1.2-2.5-1.8-4.4-1.8C242.5,10.4,240.5,11.1,240.5,13.3z"/>
		</g>
	</g>
</g>
<path fill="#C5D984" d="M32.2,20.1h-3.1c-0.8,0-1.4,0.6-1.4,1.4c0,0.8,0.6,1.4,1.4,1.4h1.7v5.2L16.6,14c0,0,0,0,0,0l-5-5h11.2
	c3.2,0,6.1,1.9,7.3,4.9c0.3,0.7,1.1,1.1,1.9,0.8c0.7-0.3,1.1-1.1,0.8-1.9c-1.7-4-5.6-6.6-9.9-6.6H8.2c-0.8,0-1.4,0.6-1.4,1.4v14.7
	c0,6,4.8,10.8,10.8,10.8h14.7c0.8,0,1.4-0.6,1.4-1.4V21.5C33.7,20.7,33,20.1,32.2,20.1z M28.8,30.2h-4v-4L28.8,30.2z M9.6,22.2V11
	l4.6,4.6v13.8C11.5,28.1,9.6,25.4,9.6,22.2z M17,30.2V18.4l4.9,4.9v6.9h-4.3C17.4,30.2,17.2,30.2,17,30.2z"/>
</svg>
